nColumns=19
nRows=48
DataType=double
version=3
OpenSimVersion=4.5
endheader
time	ground_force_1_vx	ground_force_1_vy	ground_force_1_vz	ground_force_1_px	ground_force_1_py	ground_force_1_pz	ground_moment_1_mx	ground_moment_1_my	ground_moment_1_mz	ground_force_2_vx	ground_force_2_vy	ground_force_2_vz	ground_force_2_px	ground_force_2_py	ground_force_2_pz	ground_moment_2_mx	ground_moment_2_my	ground_moment_2_mz
0	-6.60210466384888	61.1260147094727	-11.2950477600098	0.194947731473276	6.03043700909103e-18	-0.0984845101998332	0	0.235709913634054	1.44330695629622e-17	0	0	0	0	0	0	0	0	0
0.001	-8.17058658599854	82.3983001708984	-13.6505374908447	0.195743150701912	6.24341756827767e-18	-0.100606092855163	0	0.172668751408965	1.0572911686288e-17	0	0	0	0	0	0	0	0	0
0.002	-9.77138996124268	109.27392578125	-15.8149890899658	0.19696596100916	6.35639487020386e-18	-0.101094498380074	0	0.17806979348162	1.09036301306048e-17	0	0	0	0	0	0	0	0	0
0.003	-11.265266418457	139.677352905273	-19.1771602630615	0.197469220502084	6.37988287010699e-18	-0.100121432694096	0	0.244769410925237	1.49878037809387e-17	0	0	0	0	0	0	0	0	0
0.004	-12.7739381790161	175.161056518555	-22.9601554870605	0.197732432226688	6.34946526772742e-18	-0.0982680217147602	0	0.175498558788157	1.07461874137445e-17	0	0	0	0	0	0	0	0	0
0.005	-14.5081176757812	214.784255981445	-27.0624256134033	0.198549712557662	6.4410876879905e-18	-0.0984076755558713	0	0.271413017080616	-8.92875447642193e-16	0	0	0	0	0	0	0	0	0
0.006	-16.4100112915039	252.336791992188	-31.1448879241943	0.198915119831866	6.41685779303018e-18	-0.0966553175074474	0	0.27222111115805	1.66687356220021e-17	0	0	0	0	0	0	0	0	0
0.007	-18.4933471679688	287.390563964844	-35.0351219177246	0.199030051754258	6.42981676775648e-18	-0.0955102997911502	0	0.26909016028037	1.64770201734701e-17	0	0	0	0	0	0	0	0	0
0.008	-20.7977294921875	318.487518310547	-38.0823097229004	0.199598333248513	6.47217596607462e-18	-0.094845424163369	7.27595761418343e-15	0.317153206008149	1.942003292886e-17	0	0	0	0	0	0	0	0	0
0.009	-23.5873775482178	341.485290527344	-40.4452171325683	0.199916853650295	6.49563617961755e-18	-0.0938719046916914	0	0.297509448669147	1.82171997014382e-17	0	0	0	0	0	0	0	0	0
0.01	-26.1764526367188	358.542816162109	-41.224910736084	0.200068640342525	6.52494833105269e-18	-0.0929939546184115	0	0.26140366534751	1.60063581026607e-17	0	0	0	0	0	0	0	0	0
0.011	-29.3704929351807	368.367248535156	-40.5726776123047	0.200159753676188	6.52577304093645e-18	-0.0916507693185959	-7.27595761418343e-15	0.288877826850111	1.76886652998316e-17	0	0	0	0	0	0	0	0	0
0.012	-32.238597869873	373.631774902344	-38.6645088195801	0.200598995972688	6.5642515004904e-18	-0.0909225164171894	0	0.199345922381615	1.22064172883861e-17	0	0	0	0	0	0	0	0	0
0.013	-34.8236351013184	374.50048828125	-36.4646377563476	0.200519133199143	6.58708564080195e-18	-0.0899387723937176	-7.27595761418343e-15	0.250899665027609	1.53631735841602e-17	0	0	0	0	0	0	0	0	0
0.014	-37.0959739685059	373.826599121094	-33.0883674621582	0.201136361508007	6.62238771298991e-18	-0.0891586451499587	7.27595761418343e-15	0.153855461229874	9.42092990632524e-18	0	0	0	0	0	0	0	0	0
0.015	-38.8888320922852	370.393096923828	-29.4602718353271	0.201104314471666	6.65474488748816e-18	-0.0883304240771585	7.27595761418343e-15	0.175758467383563	1.07621022252162e-17	0	0	0	0	0	0	0	0	0
0.016	-40.0671615600586	367.133819580078	-25.5963268280029	0.201182632462853	6.68841206092923e-18	-0.0875235969106458	0	0.17836952207055	1.09219832134571e-17	0	0	0	0	0	0	0	0	0
0.017	-40.894474029541	363.271057128906	-21.6269798278808	0.201169511969144	6.71538127122203e-18	-0.0866073837047799	0	0.15950863650542	9.76708705663608e-18	0	0	0	0	0	0	0	0	0
0.018	-40.8267517089844	360.184417724609	-17.7518634796142	0.201195689766818	6.75249115139675e-18	-0.0858567802059575	0	0.137750048083554	8.43475777339594e-18	0	0	0	0	0	0	0	0	0
0.019	-40.663387298584	357.096099853516	-13.8103618621826	0.201043373074097	6.74412897354737e-18	-0.084363561643661	0	0.102813562320515	6.2955150002378e-18	0	0	0	0	0	0	0	0	0
0.02	-40.0935935974121	355.301818847656	-9.93551158905027	0.201003446662195	6.79568739759824e-18	-0.083848920773185	0	0.0521742547920903	3.19475170645159e-18	0	0	0	0	0	0	0	0	0
0.021	-39.4284133911133	355.146667480469	-6.01470899581907	0.201148566890893	6.81973664856193e-18	-0.0828850210126139	-7.27595761418343e-15	0.0951607739367191	5.8269168602994e-18	0	0	0	0	0	0	0	0	0
0.022	-38.4159393310547	356.110443115234	-1.96001017093656	0.201033906736595	6.87011609452604e-18	-0.0823511259688108	-7.27595761418343e-15	0.0608095257948835	3.72350955611862e-18	0	0	0	0	0	0	0	0	0
0.023	-37.5715179443359	356.039886474609	2.09246349334719	0.200882859174757	6.87401246318869e-18	-0.0810581046637246	0	0.106767316695842	6.53761263225574e-18	0	0	0	0	0	0	0	0	0
0.024	-36.2414741516113	357.694702148438	6.51946783065798	0.200894474874882	6.88241586119659e-18	-0.0798386887336476	0	0.0587905784300101	3.59988468471666e-18	0	0	0	0	0	0	0	0	0
0.025	-35.2614212036133	360.728668212891	11.1956453323364	0.200805545167666	6.91380209763983e-18	-0.0789946110390738	0	0.0113869262915296	6.97248141752426e-19	0	0	0	0	0	0	0	0	0
0.026	-34.2780647277832	363.763610839844	15.9592123031616	0.200849954444733	6.93119314765052e-18	-0.0779219746050776	0	-0.038129981943438	-2.33478801692889e-18	0	0	0	0	0	0	0	0	0
0.027	-33.4973373413086	367.573547363281	20.7927474975586	0.200600999828676	6.98959857634096e-18	-0.077519153806223	0	-0.0230699462817452	-1.41262679352203e-18	0	0	0	0	0	0	0	0	0
0.028	-32.6554908752441	372.162689208984	26.5284976959229	0.200587341655507	7.00014232162506e-18	-0.0763346923998123	-7.27595761418343e-15	-0.0731451187486196	-4.4788467774375e-18	0	0	0	0	0	0	0	0	0
0.029	-31.7561187744141	376.492004394531	31.7567539215088	0.20048017749722	7.02966354253966e-18	-0.0754601566902429	-7.27595761418343e-15	-0.0259031698512267	-1.58611170230375e-18	0	0	0	0	0	0	0	0	0
0.03	-31.1352844238281	381.944915771484	37.6285285949707	0.200747762326793	7.06530150584386e-18	-0.0746855149647	7.27595761418343e-15	-0.132118654711328	-8.08993437999411e-18	0	0	0	0	0	0	0	0	0
0.031	-30.4482345581055	386.275146484375	43.5620536804199	0.200370026542845	7.09166339801019e-18	-0.0737593835011473	0	-0.0693075232821366	-4.24386182721496e-18	0	0	0	0	0	0	0	0	0
0.032	-29.6730327606201	390.348266601562	49.4945755004883	0.200408213852128	7.11201366940352e-18	-0.0727350748198499	0	-0.144832075506798	-8.86840688416342e-18	0	0	0	0	0	0	0	0	0
0.033	-29.0343494415283	395.371002197266	55.4294128417969	0.200535658347995	7.1680588932574e-18	-0.0722937089508868	-7.27595761418343e-15	-0.138661511335898	-8.4905688011221e-18	0	0	0	0	0	0	0	0	0
0.034	-28.1846561431885	398.582275390625	61.7757835388184	0.200263741302756	7.15473524371038e-18	-0.0707194634067521	0	-0.131870042934863	-8.07471129918023e-18	0	0	0	0	0	0	0	0	0
0.035	-27.1177806854248	403.690338134766	67.334457397461	0.200491631219986	7.23787606817141e-18	-0.0707206022767229	0	-0.205789601652142	-1.26009788480552e-17	0	0	0	0	0	0	0	0	0
0.036	-26.1661720275879	406.986267089844	73.4173736572266	0.200126562372848	7.24923426944456e-18	-0.0695494419460122	7.27595761418343e-15	-0.228977538593793	-1.40208304857764e-17	0	0	0	0	0	0	0	0	0
0.037	-25.0230617523193	410.628570556641	79.2566757202149	0.200096843376925	7.2801221109874e-18	-0.0686972248450276	0	-0.24759685832368	-1.51609350012518e-17	0	0	0	0	0	0	0	0	0
0.038	-23.7818908691406	413.319274902344	84.1703033447266	0.200000479482923	7.32012548611002e-18	-0.0679938757047665	0	-0.256461257357184	-1.5703722896389e-17	0	0	0	0	0	0	0	0	0
0.039	-22.5773220062256	415.923370361328	89.2378387451172	0.199777246840994	7.33031916129091e-18	-0.0668036972197101	7.27595761418343e-15	-0.238317470623561	-1.45927363790019e-17	0	0	0	0	0	0	0	0	0
0.04	-20.899585723877	418.871551513672	93.9742050170899	0.199772787742314	7.36455809265333e-18	-0.0660062075686632	0	-0.368569789690391	-2.25683906603375e-17	0	0	0	0	0	0	0	0	0
0.041	-19.5813770294189	420.259582519531	97.1945343017578	0.19916884736491	7.37092651364314e-18	-0.0647535579418255	7.27595761418343e-15	-0.352882195857543	-2.16078025816515e-17	0	0	0	0	0	0	0	0	0
0.042	-17.8112545013428	424.409759521484	100.240936279297	0.199251131613945	7.4225998077998e-18	-0.0642407930425416	7.27595761418343e-15	-0.338315167844574	-2.07158293701928e-17	0	0	0	0	0	0	0	0	0
0.043	-16.3297824859619	426.745758056641	102.627227783203	0.199112332880092	7.45576163412497e-18	-0.0634257129313228	-7.27595761418343e-15	-0.346313605009665	-2.12055923938134e-17	0	0	0	0	0	0	0	0	0
0.044	-14.9638757705688	428.731109619141	103.630317687988	0.198888157569029	7.45790792983116e-18	-0.0621041107658992	0	-0.304503789198437	-1.86454795385053e-17	0	0	0	0	0	0	0	0	0
0.045	-13.6432981491089	430.541473388672	104.504318237305	0.198560344765993	7.45784298748961e-18	-0.0607463963426508	-7.27595761418343e-15	-0.412278747384751	1.7937446111288e-15	0	0	0	0	0	0	0	0	0
0.046	-12.4688138961792	433.643798828125	104.349388122559	0.198548884035834	7.49451586593253e-18	-0.0599886560639485	-7.27595761418343e-15	-0.427943982698808	1.79278539211453e-15	0	0	0	0	0	0	0	0	0
0.047	-11.6061010360718	436.481567382812	102.989356994629	0.198352440192318	7.50516573123671e-18	-0.0588059277289862	0	-0.399162703925603	-2.44416663850746e-17	0	0	0	0	0	0	0	0	0
